Coordinates
version=1
nRows=10
nColumns=40
inDegrees=yes

Units are S.I. units (second, meters, Newtons, ...)
If the header above contains a line with 'inDegrees', this indicates whether rotational values are in degrees (yes) or radians (no).

endheader
time	pelvis_tilt	pelvis_list	pelvis_rotation	pelvis_tx	pelvis_ty	pelvis_tz	hip_flexion_r	hip_adduction_r	hip_rotation_r	knee_angle_r	knee_angle_r_beta	ankle_angle_r	subtalar_angle_r	mtp_angle_r	hip_flexion_l	hip_adduction_l	hip_rotation_l	knee_angle_l	knee_angle_l_beta	ankle_angle_l	subtalar_angle_l	mtp_angle_l	lumbar_extension	lumbar_bending	lumbar_rotation	arm_flex_r	arm_add_r	arm_rot_r	elbow_flex_r	pro_sup_r	wrist_flex_r	wrist_dev_r	arm_flex_l	arm_add_l	arm_rot_l	elbow_flex_l	pro_sup_l	wrist_flex_l	wrist_dev_l
      0.42500000	     31.93343538	    -37.15783537	    -89.88824372	      0.11021630	      1.09925408	      0.11531513	    -19.96590599	    -36.45918442	      8.85051893	     25.80103916	      0.45031308	      4.67477073	      0.00000000	      0.00000000	     73.20819970	     12.80268250	    -31.48931588	     92.85161708	      1.62056643	    -18.63332924	      0.00000000	      0.00000000	    -55.19133888	    -27.55173622	    -25.51000738	     56.21016436	    -30.74370626	     45.92567255	    132.08871337	     33.58772041	      0.00000000	      0.00000000	     47.81378534	     -5.75766665	     36.50008762	    103.39925843	     51.24123422	      0.00000000	      0.00000000
      0.42777778	     31.74427771	    -37.28948306	    -89.89421556	      0.11170997	      1.09941703	      0.11578932	    -20.15595151	    -36.44541862	      8.41027651	     25.80820816	      0.45043821	      4.62541654	      0.00000000	      0.00000000	     73.96273031	     12.82652136	    -31.45094009	     93.05738268	      1.62415772	    -18.57357409	      0.00000000	      0.00000000	    -55.28434379	    -27.30269775	    -25.65609661	     56.59334376	    -30.79687900	     45.75413695	    132.14635517	     33.69707190	      0.00000000	      0.00000000	     48.19619813	     -5.77151992	     36.41837144	    103.52105290	     51.23122537	      0.00000000	      0.00000000
      0.43055556	     32.08122220	    -37.73333685	    -89.89431498	      0.11262045	      1.10005187	      0.11636476	    -20.76941154	    -36.97915484	      8.08321560	     25.56362779	      0.44616947	      4.74702783	      0.00000000	      0.00000000	     74.36450486	     12.73246014	    -31.96762813	     93.18702953	      1.62642049	    -18.82512323	      0.00000000	      0.00000000	    -55.72909321	    -27.56026524	    -25.92647197	     57.07740640	    -31.01973504	     45.95191886	    132.19601593	     33.51493764	      0.00000000	      0.00000000	     48.56282577	     -5.72959803	     36.32779331	    103.50479781	     51.25742629	      0.00000000	      0.00000000
      0.43333333	     33.04290163	    -38.25804864	    -89.89151400	      0.11270009	      1.10073538	      0.11628311	    -21.19499645	    -38.14624644	      8.04015281	     25.42192761	      0.44369634	      4.36620616	      0.00000000	      0.00000000	     74.36749242	     12.55902991	    -32.95799594	     93.06719919	      1.62432905	    -18.75893508	      0.00000000	      0.00000000	    -56.40361267	    -28.41963914	    -26.49754254	     57.63914510	    -30.98713860	     46.23543848	    132.03075295	     33.02385539	      0.00000000	      0.00000000	     48.83752247	     -5.78453953	     36.14850776	    103.55260208	     51.26213154	      0.00000000	      0.00000000
      0.43611111	     33.06192768	    -38.49018255	    -89.89677915	      0.11376977	      1.10110730	      0.11669565	    -21.47283246	    -38.28085239	      7.90729161	     25.41132587	      0.44351130	      4.36378435	      0.00000000	      0.00000000	     74.97214312	     12.51792664	    -33.10352773	     93.21519080	      1.62691199	    -18.77918760	      0.00000000	      0.00000000	    -56.63490031	    -28.39661312	    -26.70929059	     57.94923215	    -31.03347602	     46.12409523	    132.06505774	     32.99899627	      0.00000000	      0.00000000	     49.23735527	     -5.78057632	     36.04304121	    103.56708940	     51.25969998	      0.00000000	      0.00000000
      0.43888889	     33.44170740	    -38.94698429	    -89.89501758	      0.11492652	      1.10159180	      0.11729454	    -22.06734804	    -38.95202444	      7.23328062	     25.19139000	      0.43967270	      4.30039194	      0.00000000	      0.00000000	     75.37997923	     12.40949562	    -33.63615918	     93.35976329	      1.62943526	    -18.89415748	      0.00000000	      0.00000000	    -57.08151465	    -28.65686554	    -27.09012570	     58.71621218	    -31.17006661	     46.56083254	    131.92613118	     32.91549827	      0.00000000	      0.00000000	     49.55731873	     -5.81657185	     35.87442443	    103.60338006	     51.26784882	      0.00000000	      0.00000000
      0.44166667	     34.19151892	    -39.57593624	    -89.89471987	      0.11532532	      1.10245757	      0.11737596	    -22.74250084	    -39.88786027	      7.17318231	     24.94219346	      0.43532340	      3.99414799	      0.00000000	      0.00000000	     75.51920585	     12.19391922	    -34.48054375	     93.41004156	      1.63031278	    -18.87816938	      0.00000000	      0.00000000	    -57.83333768	    -29.29624685	    -27.59929319	     59.21412273	    -31.17427917	     46.60931352	    131.83848492	     32.71457459	      0.00000000	      0.00000000	     49.96242814	     -5.88676753	     35.76635874	    103.67999480	     51.29932007	      0.00000000	      0.00000000
      0.44444444	     34.22726693	    -39.74822490	    -89.89692612	      0.11610183	      1.10267063	      0.11769938	    -22.95554064	    -40.01867586	      7.03930716	     24.93013088	      0.43511287	      3.99001857	      0.00000000	      0.00000000	     75.90046279	     12.13124095	    -34.61970226	     93.52984592	      1.63240376	    -18.89779119	      0.00000000	      0.00000000	    -57.99882004	    -29.29048356	    -27.72905583	     59.44729827	    -31.23817529	     46.55045124	    131.83647527	     32.69190110	      0.00000000	      0.00000000	     50.22357766	     -5.88303833	     35.69208409	    103.68340523	     51.29052270	      0.00000000	      0.00000000
      0.44722222	     34.43697053	    -40.11676487	    -89.89805318	      0.11720999	      1.10307847	      0.11828543	    -23.41919444	    -40.44387834	      6.56484102	     24.82004694	      0.43319154	      3.94586976	      0.00000000	      0.00000000	     76.35933676	     12.01166450	    -34.98712340	     93.74531868	      1.63616447	    -18.96064360	      0.00000000	      0.00000000	    -58.34024338	    -29.42008673	    -27.99362176	     59.97218614	    -31.36173515	     46.75240006	    131.68963212	     32.67645261	      0.00000000	      0.00000000	     50.56994553	     -5.89910074	     35.59506032	    103.65270906	     51.27292642	      0.00000000	      0.00000000
      0.45000000	     35.12475972	    -40.73181380	    -89.89738768	      0.11780510	      1.10383882	      0.11837372	    -24.11495574	    -41.33526894	      6.37713277	     24.52599012	      0.42805928	      3.66733208	      0.00000000	      0.00000000	     76.49475351	     11.79148119	    -35.75256420	     93.77600205	      1.63670000	    -18.93541982	      0.00000000	      0.00000000	    -59.06690882	    -29.97848697	    -28.51016837	     60.58867345	    -31.38454428	     46.94465782	    131.55429490	     32.71798125	      0.00000000	      0.00000000	     50.92792372	     -5.97601883	     35.41335404	    103.76001389	     51.33270500	      0.00000000	      0.00000000
